<svg id="Laag_1" data-name="Laag 1" xmlns="http://www.w3.org/2000/svg" xmlns:xlink="http://www.w3.org/1999/xlink" viewBox="0 0 19.66 19.66">
  <defs>
    <style>
      .cls-1 {
        fill: url(#Naamloos_verloop_20);
      }

      .cls-2 {
        fill: url(#Naamloos_verloop_240);
      }
    </style>
    <linearGradient id="Naamloos_verloop_20" data-name="Naamloos verloop 20" x1="9.83" y1="1.3" x2="9.83" y2="18.27" gradientUnits="userSpaceOnUse">
      <stop offset="0.04" stop-color="#1c5069"/>
      <stop offset="0.91" stop-color="#ed6d2b"/>
    </linearGradient>
    <linearGradient id="Naamloos_verloop_240" data-name="Naamloos verloop 240" x1="9.75" y1="1.3" x2="9.75" y2="18.27" gradientUnits="userSpaceOnUse">
      <stop offset="0" stop-color="#014d6a" stop-opacity="0.8"/>
      <stop offset="0.04" stop-color="#1c5069"/>
      <stop offset="0.91" stop-color="#ed6d2b"/>
    </linearGradient>
  </defs>
  <g>
    <path class="cls-1" d="M10.49,13.27a5.37,5.37,0,0,1-4.14-1.65A6.07,6.07,0,0,1,4.81,7.34,6,6,0,0,1,6.39,3.11a5.33,5.33,0,0,1,4.07-1.68,4.74,4.74,0,0,1,4,1.85.68.68,0,0,1,.19.45.79.79,0,0,1-.36.59l-.44.32a.75.75,0,0,1-.44.23.9.9,0,0,1-.59-.32,3.12,3.12,0,0,0-2.27-.82,2.78,2.78,0,0,0-2.27,1,4,4,0,0,0-.82,2.61,3.89,3.89,0,0,0,.85,2.59,2.84,2.84,0,0,0,2.31,1A3.13,3.13,0,0,0,13,10a.88.88,0,0,1,.59-.31.74.74,0,0,1,.48.22l.44.34a.8.8,0,0,1,.33.6.79.79,0,0,1-.17.45A4.94,4.94,0,0,1,10.49,13.27Z"/>
    <path class="cls-2" d="M14.68,17.47a.69.69,0,0,1-.76.76H5.56A.76.76,0,0,1,5,18a.77.77,0,0,1-.2-.56V16.34a.81.81,0,0,1,.2-.57.76.76,0,0,1,.55-.2h8.36a.77.77,0,0,1,.56.2.81.81,0,0,1,.2.57Z"/>
  </g>
</svg>
