<svg id="Laag_1" data-name="Laag 1" xmlns="http://www.w3.org/2000/svg" xmlns:xlink="http://www.w3.org/1999/xlink" viewBox="0 0 132.38 36.19">
  <defs>
    <style>
      .cls-1 {
        fill: url(#Naamloos_verloop_240);
      }

      .cls-2 {
        fill: url(#Naamloos_verloop_240-3);
      }

      .cls-3 {
        fill: url(#Naamloos_verloop_240-4);
      }

      .cls-4 {
        fill: url(#Naamloos_verloop_240-5);
      }

      .cls-5 {
        fill: url(#Naamloos_verloop_240-7);
      }

      .cls-6 {
        fill: #1d1d1b;
      }
    </style>
    <linearGradient id="Naamloos_verloop_240" data-name="Naamloos verloop 240" x1="5.08" y1="14.25" x2="80.1" y2="14.25" gradientUnits="userSpaceOnUse">
      <stop offset="0" stop-color="#014d6a" stop-opacity="0.8"/>
      <stop offset="0.04" stop-color="#1c5069"/>
      <stop offset="0.91" stop-color="#ed6d2b"/>
    </linearGradient>
    <linearGradient id="Naamloos_verloop_240-3" x1="5.08" y1="14.12" x2="80.1" y2="14.12" xlink:href="#Naamloos_verloop_240"/>
    <linearGradient id="Naamloos_verloop_240-4" x1="5.08" y1="11.95" x2="80.1" y2="11.95" xlink:href="#Naamloos_verloop_240"/>
    <linearGradient id="Naamloos_verloop_240-5" x1="5.08" y1="16.71" x2="80.1" y2="16.71" xlink:href="#Naamloos_verloop_240"/>
    <linearGradient id="Naamloos_verloop_240-7" x1="5.08" y1="23.8" x2="80.1" y2="23.8" xlink:href="#Naamloos_verloop_240"/>
  </defs>
  <g>
    <path class="cls-1" d="M12.19,20.17a5.39,5.39,0,0,1-4.14-1.65,6.07,6.07,0,0,1-1.53-4.28A5.94,5.94,0,0,1,8.09,10a5.34,5.34,0,0,1,4.08-1.68,4.76,4.76,0,0,1,4,1.85.72.72,0,0,1,.18.45.79.79,0,0,1-.36.59l-.43.32a.74.74,0,0,1-.45.23.88.88,0,0,1-.58-.32,3.14,3.14,0,0,0-2.28-.82,2.76,2.76,0,0,0-2.26,1,3.93,3.93,0,0,0-.83,2.61A3.89,3.89,0,0,0,10,16.83a2.84,2.84,0,0,0,2.31,1,3.11,3.11,0,0,0,2.36-.94.88.88,0,0,1,.6-.31.78.78,0,0,1,.48.22l.43.34a.8.8,0,0,1,.33.6.79.79,0,0,1-.17.45A4.94,4.94,0,0,1,12.19,20.17Z"/>
    <path class="cls-1" d="M24.38,20.17a5.7,5.7,0,0,1-4.29-1.68,5.85,5.85,0,0,1-1.62-4.25,6.06,6.06,0,0,1,.73-3,5.67,5.67,0,0,1,2.09-2.15,5.94,5.94,0,0,1,3.09-.81,6.11,6.11,0,0,1,3.11.78,5.16,5.16,0,0,1,2.06,2.11,6.41,6.41,0,0,1,.71,3,6.06,6.06,0,0,1-.73,3,5.53,5.53,0,0,1-2.08,2.16A5.81,5.81,0,0,1,24.38,20.17Zm0-2.31a2.9,2.9,0,0,0,2.36-1,3.92,3.92,0,0,0,.86-2.58,3.91,3.91,0,0,0-.86-2.57,2.88,2.88,0,0,0-2.34-1,3,3,0,0,0-2.4,1,3.91,3.91,0,0,0-.86,2.57A3.92,3.92,0,0,0,22,16.82,2.92,2.92,0,0,0,24.38,17.86Z"/>
    <path class="cls-2" d="M34,19.9a.71.71,0,0,1-.76-.77V9.34a.73.73,0,0,1,.2-.56A.76.76,0,0,1,34,8.59h.72a.75.75,0,0,1,.84.59,6.77,6.77,0,0,1,.17,1.12,4.13,4.13,0,0,1,3.6-2,3.86,3.86,0,0,1,1.22.19.57.57,0,0,1,.43.6,1,1,0,0,1-.09.41l-.32.79a.64.64,0,0,1-.62.49.6.6,0,0,1-.23,0,6.49,6.49,0,0,0-.68,0,3,3,0,0,0-2.26.9,3.73,3.73,0,0,0-.88,2.69v4.8a.74.74,0,0,1-.21.57.81.81,0,0,1-.57.2Z"/>
    <path class="cls-3" d="M47.44,20.17a4.75,4.75,0,0,1-3.79-1.65,6.34,6.34,0,0,1-1.43-4.28A6.09,6.09,0,0,1,43.72,10,5,5,0,0,1,47.6,8.33,4.56,4.56,0,0,1,51.27,10V4.49A.71.71,0,0,1,52,3.73h1.11a.71.71,0,0,1,.77.76V19.13a.72.72,0,0,1-.77.77h-.67a.76.76,0,0,1-.85-.58,7.28,7.28,0,0,1-.14-1.18,5,5,0,0,1-1.77,1.49A4.91,4.91,0,0,1,47.44,20.17Zm.43-2.31A3.45,3.45,0,0,0,50.33,17a3.2,3.2,0,0,0,.94-2.46V14a3.31,3.31,0,0,0-.9-2.52A3.26,3.26,0,0,0,48,10.63a3,3,0,0,0-2.23.88,3.69,3.69,0,0,0-.86,2.68,4,4,0,0,0,.81,2.73A2.7,2.7,0,0,0,47.87,17.86Z"/>
    <path class="cls-4" d="M59.17,24.82a3.94,3.94,0,0,1-2.77-1,.79.79,0,0,1-.25-.55.7.7,0,0,1,.23-.51l.36-.38a.64.64,0,0,1,.51-.3,1,1,0,0,1,.52.22,1.91,1.91,0,0,0,1,.29A1.36,1.36,0,0,0,60,22a9.64,9.64,0,0,0,1-2l.15-.37L56.38,9.48a.86.86,0,0,1-.09-.39c0-.33.22-.5.66-.5h1.33a.88.88,0,0,1,.89.61l3.14,7.56L65,9.22a.83.83,0,0,1,.87-.63h1.3a.78.78,0,0,1,.48.14.41.41,0,0,1,.19.36.89.89,0,0,1-.1.37L63.29,20.7c-.18.44-.35.84-.52,1.2a8.74,8.74,0,0,1-.65,1.1,5.56,5.56,0,0,1-.8.95,3.58,3.58,0,0,1-1,.62A2.81,2.81,0,0,1,59.17,24.82Z"/>
    <path class="cls-1" d="M74.19,20.17a7,7,0,0,1-4.56-1.42.73.73,0,0,1-.29-.53.82.82,0,0,1,.22-.52l.26-.39a.82.82,0,0,1,.6-.32,1.09,1.09,0,0,1,.5.2,5.39,5.39,0,0,0,3,.76Q76,18,76,16.69a1,1,0,0,0-.58-1,5.28,5.28,0,0,0-1.82-.49A8.83,8.83,0,0,1,72,14.84a4.4,4.4,0,0,1-1.24-.64,2.35,2.35,0,0,1-.82-1,3.46,3.46,0,0,1-.28-1.46,2.94,2.94,0,0,1,1.25-2.43,5.27,5.27,0,0,1,3.29-1A5.75,5.75,0,0,1,78,9.62a.64.64,0,0,1,.28.54,1,1,0,0,1-.23.55l-.3.35a.7.7,0,0,1-.55.27.93.93,0,0,1-.52-.16,4.2,4.2,0,0,0-2.5-.7,2.61,2.61,0,0,0-1.51.34,1.07,1.07,0,0,0-.48.91.9.9,0,0,0,.5.87,8.9,8.9,0,0,0,1.9.49,9.64,9.64,0,0,1,1.62.39,5,5,0,0,1,1.26.63,2.59,2.59,0,0,1,.88,1,3.62,3.62,0,0,1,.29,1.5,3.16,3.16,0,0,1-1.2,2.53A4.89,4.89,0,0,1,74.19,20.17Z"/>
    <path class="cls-5" d="M54.13,24.37a.73.73,0,0,1-.2.56.77.77,0,0,1-.56.2H7.27a.68.68,0,0,1-.75-.76V23.24a.8.8,0,0,1,.19-.57.77.77,0,0,1,.56-.2h46.1a.7.7,0,0,1,.76.77Z"/>
  </g>
  <g>
    <path class="cls-6" d="M67.6,30.38a2.8,2.8,0,0,1-1.88-.59A2,2,0,0,1,65,28.17a2,2,0,0,1,.8-1.71,3.54,3.54,0,0,1,2.21-.61,6.83,6.83,0,0,1,2.4.39v-.41A2.71,2.71,0,0,0,69.9,24a2.19,2.19,0,0,0-1.71-.6,3.77,3.77,0,0,0-1.16.17,3.36,3.36,0,0,0-1,.57.37.37,0,0,1-.2.08.2.2,0,0,1-.19-.11l-.1-.1a.38.38,0,0,1-.06-.19.31.31,0,0,1,.11-.21,4,4,0,0,1,2.7-.95,2.93,2.93,0,0,1,2.2.79,3,3,0,0,1,.78,2.24v4.25a.27.27,0,0,1-.07.2.26.26,0,0,1-.19.08h-.11c-.18,0-.27-.08-.29-.23-.06-.41-.09-.76-.11-1A2.89,2.89,0,0,1,69.31,30,3.66,3.66,0,0,1,67.6,30.38Zm.11-.71A3,3,0,0,0,69.63,29a2,2,0,0,0,.82-1.55v-.62a7.25,7.25,0,0,0-2.23-.35,3.36,3.36,0,0,0-1.8.39,1.57,1.57,0,0,0-.09,2.39A2.35,2.35,0,0,0,67.71,29.67Z"/>
    <path class="cls-6" d="M74.16,30.2a.26.26,0,0,1-.19-.08.27.27,0,0,1-.07-.2V23.1c0-.19.09-.28.26-.28h.12a.3.3,0,0,1,.31.23,4.93,4.93,0,0,1,.1,1.07A2.81,2.81,0,0,1,75.79,23a3.35,3.35,0,0,1,1.65-.39,2.78,2.78,0,0,1,2.17.83,3.64,3.64,0,0,1,.74,2.47v4a.27.27,0,0,1-.07.2.23.23,0,0,1-.18.08h-.29a.26.26,0,0,1-.19-.08.27.27,0,0,1-.07-.2V25.86c0-1.65-.72-2.48-2.17-2.48a2.76,2.76,0,0,0-1.94.68,2.27,2.27,0,0,0-.73,1.75v4.11c0,.19-.09.28-.26.28Z"/>
    <path class="cls-6" d="M85.06,30.38a2.79,2.79,0,0,1-1.87-.59,2,2,0,0,1-.68-1.62,2,2,0,0,1,.8-1.71,3.54,3.54,0,0,1,2.21-.61,6.86,6.86,0,0,1,2.4.39v-.41A2.71,2.71,0,0,0,87.37,24a2.22,2.22,0,0,0-1.71-.6,3.89,3.89,0,0,0-1.17.17,3.32,3.32,0,0,0-1,.57.37.37,0,0,1-.2.08.23.23,0,0,1-.2-.11L83,24a.38.38,0,0,1-.06-.19.27.27,0,0,1,.11-.21,4,4,0,0,1,2.7-.95,2.93,2.93,0,0,1,2.2.79,3,3,0,0,1,.78,2.24v4.25a.32.32,0,0,1-.07.2.26.26,0,0,1-.19.08h-.11c-.18,0-.27-.08-.29-.23-.06-.41-.09-.76-.11-1A2.89,2.89,0,0,1,86.78,30,3.67,3.67,0,0,1,85.06,30.38Zm.12-.71A3,3,0,0,0,87.1,29a2,2,0,0,0,.82-1.55v-.62a7.25,7.25,0,0,0-2.23-.35,3.34,3.34,0,0,0-1.8.39,1.57,1.57,0,0,0-.09,2.39A2.35,2.35,0,0,0,85.18,29.67Z"/>
    <path class="cls-6" d="M91.63,30.2a.26.26,0,0,1-.19-.08.27.27,0,0,1-.07-.2V19.68a.23.23,0,0,1,.26-.26h.29c.17,0,.25.08.25.26V29.92a.27.27,0,0,1-.07.2.23.23,0,0,1-.18.08Z"/>
    <path class="cls-6" d="M95.28,33.48A1.92,1.92,0,0,1,93.92,33a.22.22,0,0,1-.09-.17.34.34,0,0,1,.06-.2l.07-.09a.22.22,0,0,1,.19-.1.31.31,0,0,1,.19.08,1.36,1.36,0,0,0,.9.32,1.05,1.05,0,0,0,.84-.47,6.88,6.88,0,0,0,.8-1.53l.33-.75L94,23.14a.23.23,0,0,1,0-.13c0-.13.08-.19.24-.19h.32a.32.32,0,0,1,.32.19l2.75,6.12L100,23a.28.28,0,0,1,.29-.21h.34c.16,0,.24.06.24.19a.63.63,0,0,1,0,.12l-3.3,8a7.88,7.88,0,0,1-.43.91,6,6,0,0,1-.49.75,2.17,2.17,0,0,1-.62.53A1.49,1.49,0,0,1,95.28,33.48Z"/>
    <path class="cls-6" d="M105.85,30.38a2.27,2.27,0,0,1-1.9-.82,3.79,3.79,0,0,1-.66-2.43V23.54H102c-.17,0-.25-.09-.25-.26V23.1c0-.19.08-.28.25-.28h1.31V20.88a.28.28,0,0,1,.08-.2.25.25,0,0,1,.19-.07h.28a.24.24,0,0,1,.27.27v1.94h3c.18,0,.26.09.26.28v.18a.25.25,0,0,1-.07.19.24.24,0,0,1-.19.07h-3v3.68c0,1.61.6,2.41,1.81,2.41a2.32,2.32,0,0,0,1.29-.36.37.37,0,0,1,.2-.08.26.26,0,0,1,.19.11l.06.12a.23.23,0,0,1,.08.18.22.22,0,0,1-.08.17A2.85,2.85,0,0,1,105.85,30.38Z"/>
    <path class="cls-6" d="M109.92,21.1a.54.54,0,0,1-.42-.18.6.6,0,0,1-.16-.43.64.64,0,0,1,.16-.45.54.54,0,0,1,.42-.18.56.56,0,0,1,.44.18.65.65,0,0,1,.16.45.61.61,0,0,1-.17.43A.55.55,0,0,1,109.92,21.1Zm-.14,9.1a.23.23,0,0,1-.18-.08.27.27,0,0,1-.07-.2V23.1c0-.19.08-.28.25-.28h.29c.17,0,.26.09.26.28v6.82c0,.19-.09.28-.26.28Z"/>
    <path class="cls-6" d="M116.11,30.38a3.27,3.27,0,0,1-2.55-1.07,4,4,0,0,1-1-2.79,4,4,0,0,1,1-2.78,3.22,3.22,0,0,1,2.52-1.1,3.11,3.11,0,0,1,2.5,1.08.23.23,0,0,1,.07.17.28.28,0,0,1-.13.21l-.09.08-.17.08a.31.31,0,0,1-.2-.11,2.42,2.42,0,0,0-.87-.58,3.06,3.06,0,0,0-1.11-.19,2.42,2.42,0,0,0-1.95.88,3.38,3.38,0,0,0-.74,2.26,3.3,3.3,0,0,0,.76,2.23,2.43,2.43,0,0,0,1.94.88,3.45,3.45,0,0,0,1.18-.18,2.52,2.52,0,0,0,.9-.61.27.27,0,0,1,.21-.11.36.36,0,0,1,.18.09l.09.1a.22.22,0,0,1,.1.19.23.23,0,0,1-.06.16,3.4,3.4,0,0,1-1.13.84A3.64,3.64,0,0,1,116.11,30.38Z"/>
    <path class="cls-6" d="M123.13,30.38a3.77,3.77,0,0,1-2.86-1.08.28.28,0,0,1-.1-.17.33.33,0,0,1,.1-.21l.06-.08a.3.3,0,0,1,.2-.1.29.29,0,0,1,.18.08,3.4,3.4,0,0,0,2.34.81q2,0,2-1.35a1.25,1.25,0,0,0-.11-.56,1.14,1.14,0,0,0-.29-.39,1.49,1.49,0,0,0-.47-.27,4.62,4.62,0,0,0-.6-.19l-.72-.13a4,4,0,0,1-1.87-.66,1.78,1.78,0,0,1-.58-1.45,1.72,1.72,0,0,1,.73-1.42,3,3,0,0,1,1.94-.57,3.21,3.21,0,0,1,2.51,1,.29.29,0,0,1,.1.2.27.27,0,0,1-.1.19l-.09.1a.34.34,0,0,1-.19.08.26.26,0,0,1-.2-.07,2.44,2.44,0,0,0-.9-.57,3.19,3.19,0,0,0-1.13-.18,2.36,2.36,0,0,0-1.41.35,1.08,1.08,0,0,0-.48.91,1.39,1.39,0,0,0,.1.53,1.37,1.37,0,0,0,.25.35,1.53,1.53,0,0,0,.45.25,5.12,5.12,0,0,0,.57.17l.75.13a4.73,4.73,0,0,1,1.93.71,1.7,1.7,0,0,1,.62,1.45,1.89,1.89,0,0,1-.71,1.56A3,3,0,0,1,123.13,30.38Z"/>
  </g>
</svg>
