<?xml version="1.0" encoding="UTF-8"?>
<svg id="Laag_1" data-name="Laag 1" xmlns="http://www.w3.org/2000/svg" xmlns:xlink="http://www.w3.org/1999/xlink" viewBox="0 0 107.27 47.6">
  <defs>
    <style>
      .cls-1 {
        fill: url(#Naamloos_verloop_10);
      }

      .cls-2 {
        opacity: .05;
      }

      .cls-3 {
        fill: #014d6a;
      }

      .cls-4 {
        fill: #ed6d2b;
      }

      .cls-5 {
        fill: url(#Naamloos_verloop_10-8);
      }

      .cls-6 {
        fill: url(#Naamloos_verloop_10-4);
      }

      .cls-7 {
        fill: url(#Naamloos_verloop_10-9);
      }

      .cls-8 {
        fill: url(#Naamloos_verloop_10-7);
      }

      .cls-9 {
        fill: url(#Naamloos_verloop_10-5);
      }

      .cls-10 {
        fill: url(#Naamloos_verloop_10-6);
      }

      .cls-11 {
        fill: url(#Naamloos_verloop_10-3);
      }

      .cls-12 {
        fill: url(#Naamloos_verloop_10-2);
      }

      .cls-13 {
        fill: url(#Naamloos_verloop_10-18);
      }

      .cls-14 {
        fill: url(#Naamloos_verloop_10-17);
      }

      .cls-15 {
        fill: url(#Naamloos_verloop_10-19);
      }

      .cls-16 {
        fill: url(#Naamloos_verloop_10-13);
      }

      .cls-17 {
        fill: url(#Naamloos_verloop_10-14);
      }

      .cls-18 {
        fill: url(#Naamloos_verloop_10-12);
      }

      .cls-19 {
        fill: url(#Naamloos_verloop_10-16);
      }

      .cls-20 {
        fill: url(#Naamloos_verloop_10-15);
      }

      .cls-21 {
        fill: url(#Naamloos_verloop_10-11);
      }

      .cls-22 {
        fill: url(#Naamloos_verloop_10-10);
      }

      .cls-23 {
        fill: url(#Naamloos_verloop_10-20);
      }

      .cls-24 {
        fill: url(#Naamloos_verloop_10-26);
      }

      .cls-25 {
        fill: url(#Naamloos_verloop_10-24);
      }

      .cls-26 {
        fill: url(#Naamloos_verloop_10-23);
      }

      .cls-27 {
        fill: url(#Naamloos_verloop_10-25);
      }

      .cls-28 {
        fill: url(#Naamloos_verloop_10-22);
      }

      .cls-29 {
        fill: url(#Naamloos_verloop_10-21);
      }

      .cls-30 {
        opacity: .15;
      }

      .cls-31 {
        opacity: .25;
      }

      .cls-32 {
        opacity: .4;
      }

      .cls-33 {
        opacity: .55;
      }

      .cls-34 {
        opacity: .85;
      }

      .cls-35 {
        opacity: .7;
      }
    </style>
    <linearGradient id="Naamloos_verloop_10" data-name="Naamloos verloop 10" x1="30.82" y1="10.16" x2="30.67" y2="34.43" gradientTransform="translate(24.81 -15.19) rotate(45)" gradientUnits="userSpaceOnUse">
      <stop offset=".32" stop-color="#014d6a"/>
      <stop offset=".83" stop-color="#ed6d2b"/>
    </linearGradient>
    <linearGradient id="Naamloos_verloop_10-2" data-name="Naamloos verloop 10" x1="27.82" y1="10.14" x2="27.67" y2="34.41" gradientTransform="translate(21.83 -13.96) rotate(45)" xlink:href="#Naamloos_verloop_10"/>
    <linearGradient id="Naamloos_verloop_10-3" data-name="Naamloos verloop 10" x1="27.86" y1="10.14" x2="27.71" y2="34.41" gradientTransform="translate(26.05 -12.21) rotate(45)" xlink:href="#Naamloos_verloop_10"/>
    <linearGradient id="Naamloos_verloop_10-4" data-name="Naamloos verloop 10" x1="24.85" y1="10.12" x2="24.71" y2="34.39" gradientTransform="translate(23.06 -10.97) rotate(45)" xlink:href="#Naamloos_verloop_10"/>
    <linearGradient id="Naamloos_verloop_10-5" data-name="Naamloos verloop 10" x1="30.84" y1="10.16" x2="30.69" y2="34.43" gradientTransform="translate(28.99 -13.44) rotate(45)" xlink:href="#Naamloos_verloop_10"/>
    <linearGradient id="Naamloos_verloop_10-6" data-name="Naamloos verloop 10" x1="30.89" y1="10.16" x2="30.75" y2="34.43" gradientTransform="translate(33.25 -11.7) rotate(45)" xlink:href="#Naamloos_verloop_10"/>
    <linearGradient id="Naamloos_verloop_10-7" data-name="Naamloos verloop 10" x1="27.89" y1="10.14" x2="27.74" y2="34.41" gradientTransform="translate(30.27 -10.46) rotate(45)" xlink:href="#Naamloos_verloop_10"/>
    <linearGradient id="Naamloos_verloop_10-8" data-name="Naamloos verloop 10" x1="27.93" y1="10.14" x2="27.78" y2="34.41" gradientTransform="translate(34.49 -8.72) rotate(45)" xlink:href="#Naamloos_verloop_10"/>
    <linearGradient id="Naamloos_verloop_10-9" data-name="Naamloos verloop 10" x1="24.93" y1="10.12" x2="24.78" y2="34.39" gradientTransform="translate(31.5 -7.48) rotate(45)" xlink:href="#Naamloos_verloop_10"/>
    <linearGradient id="Naamloos_verloop_10-10" data-name="Naamloos verloop 10" x1="24.87" y1="10.12" x2="24.72" y2="34.39" gradientTransform="translate(27.28 -9.21) rotate(45)" xlink:href="#Naamloos_verloop_10"/>
    <linearGradient id="Naamloos_verloop_10-11" data-name="Naamloos verloop 10" x1="21.87" y1="10.11" x2="21.72" y2="34.37" gradientTransform="translate(24.29 -7.98) rotate(45)" xlink:href="#Naamloos_verloop_10"/>
    <linearGradient id="Naamloos_verloop_10-12" data-name="Naamloos verloop 10" x1="21.9" y1="10.11" x2="21.76" y2="34.37" gradientTransform="translate(28.51 -6.23) rotate(45)" xlink:href="#Naamloos_verloop_10"/>
    <linearGradient id="Naamloos_verloop_10-13" data-name="Naamloos verloop 10" x1="18.9" y1="10.09" x2="18.75" y2="34.36" gradientTransform="translate(25.53 -4.99) rotate(45)" xlink:href="#Naamloos_verloop_10"/>
    <linearGradient id="Naamloos_verloop_10-14" data-name="Naamloos verloop 10" x1="30.76" y1="10.16" x2="30.62" y2="34.43" gradientTransform="translate(20.56 -16.94) rotate(45)" xlink:href="#Naamloos_verloop_10"/>
    <linearGradient id="Naamloos_verloop_10-15" data-name="Naamloos verloop 10" x1="18.86" y1="10.09" x2="18.72" y2="34.36" gradientTransform="translate(21.31 -6.74) rotate(45)" xlink:href="#Naamloos_verloop_10"/>
    <linearGradient id="Naamloos_verloop_10-16" data-name="Naamloos verloop 10" x1="15.86" y1="10.07" x2="15.72" y2="34.34" gradientTransform="translate(18.33 -5.5) rotate(45)" xlink:href="#Naamloos_verloop_10"/>
    <linearGradient id="Naamloos_verloop_10-17" data-name="Naamloos verloop 10" x1="15.9" y1="10.07" x2="15.75" y2="34.34" gradientTransform="translate(22.54 -3.76) rotate(45)" xlink:href="#Naamloos_verloop_10"/>
    <linearGradient id="Naamloos_verloop_10-18" data-name="Naamloos verloop 10" x1="12.9" y1="10.05" x2="12.75" y2="34.32" gradientTransform="translate(19.56 -2.52) rotate(45)" xlink:href="#Naamloos_verloop_10"/>
    <linearGradient id="Naamloos_verloop_10-19" data-name="Naamloos verloop 10" x1="24.8" y1="10.12" x2="24.65" y2="34.39" gradientTransform="translate(18.81 -12.72) rotate(45)" xlink:href="#Naamloos_verloop_10"/>
    <linearGradient id="Naamloos_verloop_10-20" data-name="Naamloos verloop 10" x1="21.79" y1="10.11" x2="21.65" y2="34.37" gradientTransform="translate(15.82 -11.48) rotate(45)" xlink:href="#Naamloos_verloop_10"/>
    <linearGradient id="Naamloos_verloop_10-21" data-name="Naamloos verloop 10" x1="21.83" y1="10.11" x2="21.68" y2="34.37" gradientTransform="translate(20.04 -9.74) rotate(45)" xlink:href="#Naamloos_verloop_10"/>
    <linearGradient id="Naamloos_verloop_10-22" data-name="Naamloos verloop 10" x1="18.83" y1="10.09" x2="18.68" y2="34.36" gradientTransform="translate(17.06 -8.5) rotate(45)" xlink:href="#Naamloos_verloop_10"/>
    <linearGradient id="Naamloos_verloop_10-23" data-name="Naamloos verloop 10" x1="32.4" y1="10.17" x2="32.25" y2="34.44" gradientTransform="matrix(1, 0, 0, 1, 0, 0)" xlink:href="#Naamloos_verloop_10"/>
    <linearGradient id="Naamloos_verloop_10-24" data-name="Naamloos verloop 10" x1="32.44" y1="10.17" x2="32.29" y2="34.44" gradientTransform="matrix(1, 0, 0, 1, 0, 0)" xlink:href="#Naamloos_verloop_10"/>
    <linearGradient id="Naamloos_verloop_10-25" data-name="Naamloos verloop 10" x1="32.47" y1="10.17" x2="32.33" y2="34.44" gradientTransform="matrix(1, 0, 0, 1, 0, 0)" xlink:href="#Naamloos_verloop_10"/>
    <linearGradient id="Naamloos_verloop_10-26" data-name="Naamloos verloop 10" x1="32.55" y1="10.17" x2="32.4" y2="34.44" gradientTransform="matrix(1, 0, 0, 1, 0, 0)" xlink:href="#Naamloos_verloop_10"/>
  </defs>
  <g>
    <path class="cls-3" d="M41.71,20.88c-1.42,0-2.54-.45-3.38-1.35-.84-.9-1.25-2.06-1.25-3.49s.43-2.54,1.29-3.45,1.97-1.37,3.32-1.37c1.43,0,2.53,.5,3.29,1.51,.1,.12,.15,.24,.15,.36,0,.17-.1,.32-.3,.48l-.35,.27c-.14,.12-.26,.18-.36,.18-.15,0-.31-.09-.48-.26-.47-.45-1.08-.67-1.86-.67s-1.4,.27-1.85,.82c-.45,.55-.67,1.25-.67,2.13s.23,1.56,.7,2.12c.47,.56,1.09,.84,1.88,.84s1.43-.25,1.92-.77c.17-.17,.34-.26,.49-.26,.12,0,.25,.06,.39,.18l.35,.28c.18,.16,.27,.32,.27,.49,0,.12-.04,.25-.13,.37-.8,1.06-1.95,1.59-3.42,1.59Z"/>
    <path class="cls-3" d="M51.66,20.88c-1.45,0-2.61-.46-3.5-1.37-.88-.91-1.32-2.07-1.32-3.47,0-.87,.2-1.67,.6-2.41,.4-.73,.97-1.31,1.71-1.76s1.58-.66,2.52-.66,1.8,.21,2.54,.63c.74,.42,1.3,1,1.68,1.73,.39,.73,.58,1.55,.58,2.46s-.2,1.68-.59,2.41c-.4,.73-.96,1.32-1.7,1.76-.74,.44-1.57,.66-2.51,.66Zm0-1.88c.82,0,1.47-.28,1.93-.85,.47-.56,.7-1.27,.7-2.11s-.23-1.53-.7-2.1c-.47-.56-1.1-.85-1.91-.85s-1.49,.28-1.96,.85c-.47,.56-.7,1.27-.7,2.1s.23,1.55,.7,2.11c.47,.56,1.11,.85,1.94,.85Z"/>
    <path class="cls-3" d="M59.51,20.66c-.2,0-.35-.06-.46-.17-.11-.11-.16-.27-.16-.46v-7.99c0-.2,.05-.35,.16-.45,.11-.11,.26-.16,.46-.16h.59c.38,0,.61,.16,.68,.48,.08,.32,.12,.63,.14,.92,.72-1.07,1.7-1.61,2.94-1.61,.37,0,.7,.05,.99,.15,.24,.07,.35,.23,.35,.49,0,.12-.03,.23-.08,.34l-.26,.65c-.1,.26-.27,.39-.51,.39-.09,0-.15,0-.19-.02-.23-.03-.41-.04-.55-.04-.75,0-1.36,.25-1.84,.74s-.72,1.23-.72,2.2v3.91c0,.2-.06,.36-.17,.47-.11,.11-.27,.16-.46,.16h-.92Z"/>
    <path class="cls-3" d="M70.48,20.88c-1.29,0-2.32-.45-3.09-1.35-.77-.9-1.16-2.06-1.16-3.49s.41-2.58,1.22-3.48c.81-.9,1.87-1.34,3.17-1.34,1.23,0,2.23,.46,2.99,1.37v-4.5c0-.2,.06-.35,.17-.46,.11-.11,.27-.16,.46-.16h.9c.2,0,.35,.05,.46,.16,.11,.11,.17,.26,.17,.46v11.95c0,.2-.06,.35-.17,.46s-.27,.17-.46,.17h-.55c-.38,0-.61-.16-.69-.47-.05-.21-.09-.53-.12-.97-.39,.52-.87,.92-1.44,1.21-.57,.29-1.2,.44-1.87,.44Zm.35-1.88c.82,0,1.49-.24,2-.72s.77-1.15,.77-2v-.41c0-.9-.24-1.58-.73-2.06-.49-.47-1.14-.71-1.95-.71-.75,0-1.35,.24-1.82,.72-.47,.48-.7,1.21-.7,2.18s.22,1.72,.66,2.23c.44,.51,1.03,.77,1.76,.77Z"/>
    <path class="cls-3" d="M80.06,24.67c-.93,0-1.68-.27-2.26-.8-.14-.14-.21-.29-.21-.45,0-.15,.06-.28,.19-.41l.3-.32c.12-.16,.26-.24,.41-.24,.13,0,.27,.06,.43,.18,.24,.15,.52,.23,.84,.23,.38,0,.69-.16,.93-.49,.24-.32,.5-.86,.79-1.59l.12-.31-3.83-8.33c-.05-.1-.08-.21-.08-.32,0-.27,.18-.41,.55-.41h1.08c.35,0,.59,.17,.73,.5l2.56,6.17,2.17-6.15c.11-.34,.34-.52,.71-.52h1.06c.16,0,.3,.04,.4,.11,.1,.07,.15,.17,.15,.3,0,.1-.03,.19-.08,.3l-3.61,9.17c-.15,.36-.29,.69-.43,.98-.14,.29-.32,.59-.53,.9-.21,.31-.43,.57-.65,.78-.23,.21-.49,.38-.79,.51s-.62,.2-.96,.2Z"/>
    <path class="cls-3" d="M92.32,20.88c-1.53,0-2.77-.39-3.72-1.16-.16-.14-.24-.28-.24-.43s.06-.29,.18-.43l.21-.32c.15-.17,.32-.26,.49-.26,.1,0,.24,.05,.41,.16,.64,.41,1.45,.62,2.45,.62,1.14,0,1.71-.34,1.71-1.03,0-.36-.16-.62-.47-.8s-.81-.31-1.49-.4c-.53-.08-.98-.18-1.36-.31-.38-.13-.72-.31-1.01-.52s-.52-.49-.67-.83-.22-.74-.22-1.2c0-.8,.34-1.46,1.02-1.98s1.58-.78,2.68-.78c1.26,0,2.3,.35,3.14,1.05,.15,.12,.23,.26,.23,.44,0,.13-.06,.28-.19,.45l-.24,.29c-.13,.15-.28,.22-.45,.22-.15,0-.29-.04-.43-.13-.54-.38-1.22-.57-2.04-.57-.56,0-.97,.09-1.23,.28-.26,.19-.39,.43-.39,.74,0,.34,.14,.57,.41,.71,.27,.13,.79,.27,1.55,.4,.51,.08,.95,.19,1.32,.31,.37,.13,.71,.3,1.03,.52,.32,.22,.55,.5,.72,.84s.24,.75,.24,1.22c0,.83-.33,1.52-.98,2.07s-1.53,.82-2.64,.82Z"/>
    <path class="cls-4" d="M39.25,33.8c-.79,0-1.39-.19-1.8-.57s-.62-.87-.62-1.45,.24-1.11,.71-1.51,1.16-.6,2.07-.6c.73,0,1.36,.1,1.89,.31v-.13c0-.59-.15-1.03-.44-1.32s-.69-.43-1.19-.43c-.67,0-1.24,.16-1.73,.47-.13,.06-.23,.1-.3,.1-.12,0-.23-.06-.32-.18l-.2-.24c-.08-.1-.12-.2-.12-.31,0-.12,.06-.23,.19-.32,.38-.29,.78-.5,1.2-.62s.9-.18,1.45-.18c.41,0,.79,.06,1.14,.18s.66,.3,.93,.54,.49,.55,.64,.94,.23,.84,.23,1.34v3.37c0,.14-.04,.25-.12,.34s-.19,.12-.33,.12h-.32c-.3,0-.46-.12-.5-.35-.06-.29-.09-.5-.1-.62-.52,.76-1.3,1.13-2.36,1.13Zm.22-1.22c.59,0,1.06-.14,1.41-.43s.54-.66,.58-1.12v-.08c-.5-.15-1.04-.23-1.6-.23s-.95,.08-1.19,.25-.37,.41-.37,.74c0,.3,.11,.52,.32,.66s.5,.21,.85,.21Z"/>
    <path class="cls-4" d="M45.63,33.64c-.14,0-.25-.04-.33-.12s-.12-.19-.12-.34v-5.77c0-.14,.04-.25,.12-.33s.19-.11,.33-.11h.44c.27,0,.43,.11,.48,.32,.05,.17,.09,.39,.1,.66,.26-.35,.58-.63,.96-.83s.81-.3,1.29-.3c.85,0,1.51,.26,1.97,.77s.69,1.27,.69,2.27v3.33c0,.14-.04,.25-.12,.34s-.19,.12-.33,.12h-.66c-.14,0-.25-.04-.33-.12s-.11-.19-.11-.34v-3.38c0-.54-.12-.95-.36-1.22s-.58-.41-1.03-.41c-.58,0-1.03,.19-1.37,.56s-.5,.91-.5,1.6v2.86c0,.15-.04,.26-.12,.34s-.19,.12-.34,.12h-.66Z"/>
    <path class="cls-4" d="M55.78,33.8c-.79,0-1.39-.19-1.8-.57s-.62-.87-.62-1.45,.24-1.11,.71-1.51,1.16-.6,2.07-.6c.73,0,1.36,.1,1.89,.31v-.13c0-.59-.15-1.03-.44-1.32s-.69-.43-1.19-.43c-.67,0-1.24,.16-1.73,.47-.13,.06-.23,.1-.3,.1-.12,0-.23-.06-.32-.18l-.2-.24c-.08-.1-.12-.2-.12-.31,0-.12,.06-.23,.19-.32,.38-.29,.78-.5,1.2-.62s.9-.18,1.45-.18c.41,0,.79,.06,1.14,.18s.66,.3,.93,.54,.49,.55,.64,.94,.23,.84,.23,1.34v3.37c0,.14-.04,.25-.12,.34s-.19,.12-.33,.12h-.32c-.3,0-.46-.12-.5-.35-.06-.29-.09-.5-.1-.62-.52,.76-1.3,1.13-2.36,1.13Zm.22-1.22c.59,0,1.06-.14,1.41-.43s.54-.66,.58-1.12v-.08c-.5-.15-1.04-.23-1.6-.23s-.95,.08-1.19,.25-.37,.41-.37,.74c0,.3,.11,.52,.32,.66s.5,.21,.85,.21Z"/>
    <path class="cls-4" d="M62.16,33.64c-.14,0-.25-.04-.33-.12s-.12-.19-.12-.34v-8.64c0-.14,.04-.25,.12-.33s.19-.12,.33-.12h.66c.14,0,.25,.04,.34,.12s.12,.19,.12,.33v8.64c0,.14-.04,.25-.12,.34s-.19,.12-.34,.12h-.66Z"/>
    <path class="cls-4" d="M66.54,36.54c-.67,0-1.22-.19-1.63-.58-.1-.1-.15-.21-.15-.32,0-.11,.05-.21,.14-.3l.21-.23c.09-.12,.19-.17,.3-.17,.09,0,.2,.04,.31,.13,.18,.11,.38,.17,.61,.17,.28,0,.5-.12,.67-.35s.36-.62,.57-1.15l.09-.22-2.77-6.02c-.04-.07-.06-.15-.06-.23,0-.2,.13-.3,.39-.3h.78c.25,0,.43,.12,.53,.36l1.85,4.46,1.57-4.45c.08-.25,.25-.37,.51-.37h.77c.12,0,.22,.03,.29,.08s.11,.13,.11,.22c0,.07-.02,.14-.06,.21l-2.61,6.63c-.11,.26-.21,.5-.31,.71s-.23,.43-.38,.65-.31,.41-.47,.56-.35,.27-.57,.37-.45,.15-.69,.15Z"/>
    <path class="cls-4" d="M76.53,33.8c-1.81,0-2.72-1.02-2.72-3.06v-2.43h-.91c-.14,0-.25-.04-.33-.12s-.11-.19-.11-.34v-.44c0-.13,.04-.24,.12-.32s.19-.12,.32-.12h.91v-1.38c0-.3,.15-.46,.44-.46h.67c.14,0,.25,.04,.33,.12s.12,.19,.12,.34v1.38h2.28c.14,0,.25,.04,.33,.12s.12,.19,.12,.32v.44c0,.14-.04,.25-.12,.34s-.19,.12-.33,.12h-2.28v2.5c0,1.09,.45,1.63,1.35,1.63,.27,0,.54-.07,.82-.2,.11-.05,.2-.07,.27-.07,.15,0,.26,.07,.34,.2l.19,.28c.06,.1,.1,.21,.1,.32,0,.1-.05,.19-.14,.27-.49,.37-1.08,.55-1.76,.55Z"/>
    <path class="cls-4" d="M80.41,33.64c-.14,0-.25-.04-.33-.12s-.12-.19-.12-.34v-5.77c0-.14,.04-.25,.12-.33s.19-.11,.33-.11h.66c.14,0,.25,.04,.34,.12s.12,.19,.12,.32v5.77c0,.15-.04,.26-.12,.34s-.19,.12-.34,.12h-.66Z"/>
    <path class="cls-4" d="M86.78,33.8c-1.02,0-1.84-.32-2.44-.97s-.91-1.49-.91-2.52,.31-1.84,.93-2.5,1.42-.99,2.4-.99c1.04,0,1.83,.36,2.38,1.09,.07,.09,.11,.18,.11,.26,0,.12-.07,.24-.21,.35l-.26,.19c-.1,.09-.19,.13-.26,.13-.11,0-.22-.06-.35-.19-.34-.32-.78-.48-1.34-.48s-1.01,.2-1.34,.59-.49,.91-.49,1.54,.17,1.13,.5,1.53,.79,.61,1.36,.61,1.03-.18,1.39-.55c.12-.12,.24-.19,.35-.19,.09,0,.18,.04,.28,.13l.26,.2c.13,.12,.19,.23,.19,.35,0,.09-.03,.18-.1,.27-.58,.77-1.41,1.15-2.48,1.15Z"/>
    <path class="cls-4" d="M93.56,33.8c-1.11,0-2-.28-2.69-.84-.12-.1-.17-.21-.17-.31s.04-.21,.13-.31l.15-.23c.11-.12,.23-.19,.35-.19,.07,0,.17,.04,.3,.12,.46,.3,1.05,.45,1.77,.45,.83,0,1.24-.25,1.24-.75,0-.26-.11-.45-.34-.58s-.59-.22-1.08-.29c-.38-.06-.71-.13-.99-.22s-.52-.22-.73-.38-.38-.36-.48-.6-.16-.53-.16-.86c0-.58,.25-1.06,.74-1.43s1.14-.56,1.94-.56c.91,0,1.66,.25,2.27,.76,.11,.08,.17,.19,.17,.32,0,.09-.05,.2-.14,.32l-.17,.21c-.09,.11-.2,.16-.32,.16-.11,0-.21-.03-.31-.1-.39-.28-.88-.41-1.47-.41-.41,0-.7,.07-.89,.2s-.28,.31-.28,.54c0,.24,.1,.41,.3,.51s.57,.19,1.12,.29c.37,.06,.69,.14,.95,.23s.52,.22,.74,.37,.4,.36,.52,.61,.18,.54,.18,.89c0,.6-.24,1.1-.71,1.49s-1.11,.59-1.91,.59Z"/>
  </g>
  <g class="cls-34">
    <rect class="cls-1" x="28.86" y="20.46" width="3.78" height="3.78" transform="translate(-6.8 28.29) rotate(-45)"/>
  </g>
  <g class="cls-35">
    <rect class="cls-12" x="25.87" y="17.48" width="3.78" height="3.78" transform="translate(-5.56 25.3) rotate(-45)"/>
  </g>
  <g class="cls-35">
    <rect class="cls-11" x="25.87" y="23.45" width="3.78" height="3.78" transform="translate(-9.78 27.05) rotate(-45)"/>
  </g>
  <g class="cls-33">
    <rect class="cls-6" x="22.89" y="20.46" width="3.78" height="3.78" transform="translate(-8.55 24.07) rotate(-45)"/>
  </g>
  <g class="cls-34">
    <rect class="cls-9" x="28.84" y="26.39" width="3.78" height="3.78" transform="translate(-11 30.01) rotate(-45)"/>
  </g>
  <g class="cls-34">
    <rect class="cls-10" x="28.86" y="32.4" width="3.78" height="3.78" transform="translate(-15.24 31.78) rotate(-45)"/>
  </g>
  <g class="cls-35">
    <rect class="cls-8" x="25.87" y="29.41" width="3.78" height="3.78" transform="translate(-14 28.8) rotate(-45)"/>
  </g>
  <g class="cls-35">
    <rect class="cls-5" x="25.87" y="35.38" width="3.78" height="3.78" transform="translate(-18.22 30.55) rotate(-45)"/>
  </g>
  <g class="cls-33">
    <rect class="cls-7" x="22.89" y="32.4" width="3.78" height="3.78" transform="translate(-16.99 27.56) rotate(-45)"/>
  </g>
  <g class="cls-33">
    <rect class="cls-22" x="22.87" y="26.43" width="3.78" height="3.78" transform="translate(-12.77 25.8) rotate(-45)"/>
  </g>
  <g class="cls-32">
    <rect class="cls-21" x="19.88" y="23.45" width="3.78" height="3.78" transform="translate(-11.54 22.82) rotate(-45)"/>
  </g>
  <g class="cls-32">
    <rect class="cls-18" x="19.88" y="29.41" width="3.78" height="3.78" transform="translate(-15.76 24.57) rotate(-45)"/>
  </g>
  <g class="cls-31">
    <rect class="cls-16" x="16.9" y="26.43" width="3.78" height="3.78" transform="translate(-14.52 21.58) rotate(-45)"/>
  </g>
  <g class="cls-34">
    <rect class="cls-17" x="28.84" y="14.45" width="3.78" height="3.78" transform="translate(-2.56 26.51) rotate(-45)"/>
  </g>
  <g class="cls-31">
    <rect class="cls-20" x="16.9" y="20.46" width="3.78" height="3.78" transform="translate(-10.3 19.83) rotate(-45)"/>
  </g>
  <g class="cls-30">
    <rect class="cls-19" x="13.92" y="17.48" width="3.78" height="3.78" transform="translate(-9.07 16.85) rotate(-45)"/>
  </g>
  <g class="cls-30">
    <rect class="cls-14" x="13.92" y="23.45" width="3.78" height="3.78" transform="translate(-13.29 18.6) rotate(-45)"/>
  </g>
  <g class="cls-2">
    <rect class="cls-13" x="10.93" y="20.46" width="3.78" height="3.78" transform="translate(-12.05 15.61) rotate(-45)"/>
  </g>
  <g class="cls-33">
    <rect class="cls-15" x="22.87" y="14.45" width="3.78" height="3.78" transform="translate(-4.3 22.29) rotate(-45)"/>
  </g>
  <g class="cls-32">
    <rect class="cls-23" x="19.88" y="11.47" width="3.78" height="3.78" transform="translate(-3.07 19.31) rotate(-45)"/>
  </g>
  <g class="cls-32">
    <rect class="cls-29" x="19.88" y="17.44" width="3.78" height="3.78" transform="translate(-7.29 21.06) rotate(-45)"/>
  </g>
  <g class="cls-31">
    <rect class="cls-28" x="16.9" y="14.45" width="3.78" height="3.78" transform="translate(-6.05 18.07) rotate(-45)"/>
  </g>
  <polygon class="cls-26" points="31.04 13.36 33.71 16.03 33.71 10.69 31.04 13.36"/>
  <polygon class="cls-25" points="31.04 19.33 33.71 22 33.71 16.65 31.04 19.33"/>
  <polygon class="cls-27" points="31.04 25.34 33.71 28.01 33.71 22.66 31.04 25.34"/>
  <polygon class="cls-24" points="31.08 31.3 33.75 33.98 33.75 28.63 31.08 31.3"/>
</svg>